<svg xmlns="http://www.w3.org/2000/svg" width="400.135" height="369.536" viewBox="0 0 400.135 369.536">
  <g id="AML" transform="translate(4.5 4.5)">
    <path id="Path_122" data-name="Path 122" d="M7.665,0C11.9,0,15.33,8.247,15.33,18.421S11.9,36.843,7.665,36.843,0,28.6,0,18.421,3.432,0,7.665,0Z" transform="translate(352.379 180.575) rotate(-45)" fill="none" stroke="#bfbfbf" stroke-width="9"/>
    <path id="Path_101" data-name="Path 101" d="M903.145,449.168c5.687,7.727,7.913,14.96,4.945,17.865-3.833,3.833-15.207-1.3-25.407-11.5s-15.392-21.574-11.5-25.468c2.905-2.844,10.2-.618,17.865,4.945" transform="translate(-535.758 -243.432)" fill="none" stroke="#bebebe" stroke-miterlimit="10" stroke-width="9"/>
    <line id="Line_6" data-name="Line 6" x1="9.425" y2="11.396" transform="translate(337.5 212.104)" fill="none" stroke="#bebebe" stroke-linecap="round" stroke-miterlimit="10" stroke-width="8"/>
    <line id="Line_7" data-name="Line 7" x1="9.726" y2="10.792" transform="translate(349.5 185.708)" fill="none" stroke="#bebebe" stroke-linecap="round" stroke-miterlimit="10" stroke-width="9"/>
    <line id="Line_8" data-name="Line 8" x1="5.79" y2="5.913" transform="translate(364.71 203.5)" fill="none" stroke="#bebebe" stroke-linecap="round" stroke-miterlimit="10" stroke-width="9"/>
    <path id="Path_104" data-name="Path 104" d="M868.819,461.887v8.469a16.938,16.938,0,1,0,33.813,0V457.993a14.094,14.094,0,0,0-12.363-14.032c-8.531-1.113-19.163-3.833-24.355-10.571A28.928,28.928,0,0,0,863.07,444.7,15.762,15.762,0,0,0,880.007,458.8" transform="translate(-571.1 -219.803)" fill="none" stroke="#cacaca" stroke-linecap="round" stroke-miterlimit="10" stroke-width="9"/>
    <path id="Path_105" data-name="Path 105" d="M896.258,479.452,890.88,464.06a11.372,11.372,0,0,0-5.564-6.181L872.458,451.7l-4.7-9.767" transform="translate(-546.798 -175.551)" fill="none" stroke="#cacaca" stroke-miterlimit="10" stroke-width="9"/>
    <path id="Path_106" data-name="Path 106" d="M861.82,465.3l.433-1.237a11.376,11.376,0,0,1,5.563-6.182l12.858-6.182,4.7-9.767" transform="translate(-577.577 -175.552)" fill="none" stroke="#cacaca" stroke-linecap="round" stroke-miterlimit="10" stroke-width="8"/>
    <path id="Path_107" data-name="Path 107" d="M864.87,443.43a14.033,14.033,0,0,0,22.563,0" transform="translate(-561.773 -167.779)" fill="none" stroke="#cacaca" stroke-miterlimit="10" stroke-width="9"/>
    <line id="Line_14" data-name="Line 14" x2="0.159" y2="33.868" transform="translate(246.5 199.5)" fill="none" stroke="#f38453" stroke-linecap="round" stroke-miterlimit="10" stroke-width="11"/>
    <line id="Line_15" data-name="Line 15" x1="0.159" y1="0.494" transform="translate(246.5 246.5)" fill="none" stroke="#f38453" stroke-linecap="round" stroke-miterlimit="10" stroke-width="11"/>
    <path id="Path_111" data-name="Path 111" d="M885.635,418.6c-24.232,0-45.187-4.2-55.635-10.261" transform="translate(-742.457 -349.603)" fill="none" stroke="#505050" stroke-linecap="round" stroke-miterlimit="10" stroke-width="11"/>
    <path id="Path_112" data-name="Path 112" d="M851.451,409.77c-3.276.433-6.738.742-10.261.989" transform="translate(-684.474 -342.193)" fill="none" stroke="#505050" stroke-linecap="round" stroke-miterlimit="10" stroke-width="11"/>
    <path id="Path_113" data-name="Path 113" d="M909.361,399a18.545,18.545,0,0,1,17.062,11.312l25.715,60.519a6.18,6.18,0,0,1,.495,2.349c0,10.261-27.693,18.545-61.816,18.545S829,483.441,829,473.18a6.189,6.189,0,0,1,.495-2.349l25.715-60.518A18.545,18.545,0,0,1,872.272,399c6.181,0,12.363,6.182,18.544,6.182S903.18,399,909.361,399Z" transform="translate(-747.639 -398)" fill="none" stroke="#505050" stroke-miterlimit="10" stroke-width="11"/>
    <path id="Path_114" data-name="Path 114" d="M831.473,468.282a95.258,95.258,0,0,1-2.473-21.7V417.84" transform="translate(-747.638 -300.378)" fill="none" stroke="#d4d4d4" stroke-miterlimit="10" stroke-width="11"/>
    <path id="Path_116" data-name="Path 116" d="M851.073,417.85v28.745a95.259,95.259,0,0,1-2.473,21.7" transform="translate(-646.079 -300.325)" fill="none" stroke="#cacaca" stroke-miterlimit="10" stroke-width="11"/>
    <path id="Path_118" data-name="Path 118" d="M842.145,569.275l-8.16-20.029a8.164,8.164,0,0,1-.8-3.029,6.18,6.18,0,0,1,2.473-4.945l19.782-14.836a6.182,6.182,0,0,0-3.709-11.127H833.182A6.182,6.182,0,0,1,827,509.128v-37.09A30.907,30.907,0,0,1,850.8,442l29.61-6.985" transform="translate(-758.002 -211.409)" fill="none" stroke="#505050" stroke-linecap="round" stroke-miterlimit="10" stroke-width="11"/>
    <path id="Path_119" data-name="Path 119" d="M887.089,438.77l-50.813,31.959A43.272,43.272,0,0,0,816,507.386v44.075" transform="translate(-815 -191.926)" fill="none" stroke="#505050" stroke-linecap="round" stroke-miterlimit="10" stroke-width="11"/>
    <path id="Path_120" data-name="Path 120" d="M880.624,569.327l8.16-20.029a8.155,8.155,0,0,0,.8-3.029,6.18,6.18,0,0,0-2.473-4.945l-19.782-14.836a6.182,6.182,0,0,1,3.708-11.127h18.545a6.182,6.182,0,0,0,6.182-6.182V472.09a30.907,30.907,0,0,0-23.8-30.043L842.36,435" transform="translate(-678.412 -211.46)" fill="none" stroke="#505050" stroke-linecap="round" stroke-miterlimit="10" stroke-width="11"/>
    <path id="Path_121" data-name="Path 121" d="M850.5,438.77l50.813,31.959a43.27,43.27,0,0,1,20.276,36.657v44.075" transform="translate(-636.233 -191.926)" fill="none" stroke="#505050" stroke-linecap="round" stroke-miterlimit="10" stroke-width="11"/>
    <line id="Line_19" data-name="Line 19" y2="25" transform="translate(279 1)" fill="none" stroke="#b8d45f" stroke-linecap="round" stroke-miterlimit="10" stroke-width="11"/>
    <line id="Line_20" data-name="Line 20" y2="25" transform="translate(279 50)" fill="none" stroke="#505050" stroke-linecap="round" stroke-miterlimit="10" stroke-width="11"/>
    <line id="Line_21" data-name="Line 21" x1="24" transform="translate(292 38)" fill="none" stroke="#7ad6f4" stroke-linecap="round" stroke-miterlimit="10" stroke-width="11"/>
    <line id="Line_22" data-name="Line 22" x1="25" transform="translate(242 38)" fill="none" stroke="#7ad6f4" stroke-linecap="round" stroke-miterlimit="10" stroke-width="11"/>
    <path id="Path_103" data-name="Path 103" d="M125.613,38.59v70.533H47.23" transform="translate(239.547 194.778)" fill="none" stroke="#505050" stroke-linecap="round" stroke-linejoin="round" stroke-miterlimit="10" stroke-width="9"/>
    <path id="Path_110" data-name="Path 110" d="M981.177,407.85c30.538,6.182,51,18.545,51,31.835,0,20.461-47.042,37.09-105.088,37.09S822,460.146,822,439.685c0-13.476,20.461-25.345,51-31.835" transform="translate(-783.91 -352.142)" fill="none" stroke="#505050" stroke-miterlimit="10" stroke-width="11"/>
    <line id="Line_16" data-name="Line 16" x1="14.65" y2="43.951" transform="translate(108.993 219.583)" fill="none" stroke="#bebebe" stroke-miterlimit="10" stroke-width="11"/>
    <line id="Line_18" data-name="Line 18" x2="14.65" y2="43.951" transform="translate(162.712 219.583)" fill="none" stroke="#bebebe" stroke-miterlimit="10" stroke-width="11"/>
    <path id="Path_115" data-name="Path 115" d="M929.906,430A55.078,55.078,0,0,1,831,430" transform="translate(-737.275 -237.369)" fill="none" stroke="#cacaca" stroke-miterlimit="10" stroke-width="11"/>
    <path id="Path_108" data-name="Path 108" d="M827,453.908a6.491,6.491,0,0,1,3.9-5.749c24.293-11.25,18.544-25.159,42.1-25.159,17.37,0,28.188,7.356,28.188,18.545,0,12.363-16.011,24.727-43.271,24.727C848.7,466.271,827,463.552,827,453.908Z" transform="translate(-758.002 -273.64)" fill="none" stroke="#7ad6f4" stroke-miterlimit="10" stroke-width="11"/>
    <path id="Path_109" data-name="Path 109" d="M913.18,453.908a6.489,6.489,0,0,0-3.895-5.749C884.992,436.909,890.74,423,867.188,423,849.818,423,839,430.356,839,441.545c0,12.363,16.011,24.727,43.271,24.727C891.482,466.271,913.18,463.552,913.18,453.908Z" transform="translate(-695.822 -273.64)" fill="none" stroke="#7ad6f4" stroke-miterlimit="10" stroke-width="11"/>
    <path id="Path_117" data-name="Path 117" d="M896.874,548.145V517.669a30.9,30.9,0,0,0-9.021-21.816L831.41,439.41" transform="translate(-735.151 -188.609)" fill="none" stroke="#505050" stroke-linecap="round" stroke-miterlimit="10" stroke-width="11"/>
    <line id="Line_17" data-name="Line 17" y1="46.919" x2="46.919" transform="translate(143.178 250.801)" fill="none" stroke="#505050" stroke-linecap="round" stroke-miterlimit="10" stroke-width="11"/>
    <path id="Path_102" data-name="Path 102" d="M43.48,109.33V33.11h62.064" transform="translate(220.116 166.383)" fill="none" stroke="#505050" stroke-linecap="round" stroke-linejoin="round" stroke-miterlimit="10" stroke-width="9"/>
  </g>
</svg>
